<svg fill="#878A8C" class="_2BQPq3iyS8t6kKtFmtkB30 " viewBox="0 0 16 16" xmlns="http://www.w3.org/2000/svg"><path fill="inherit" d="M8.622 10.616c.078.08.14.175.183.28.044.105.07.218.07.332 0 .237-.087.456-.253.62-.167.168-.385.255-.622.255-.236 0-.455-.087-.62-.254-.167-.166-.255-.385-.255-.622 0-.114.027-.227.07-.332.044-.105.105-.2.184-.28.087-.088.174-.15.288-.193.324-.13.71-.052.954.193zm-.205-6.242c1.595 0 2.466.807 2.466 1.92 0 .976-.556 1.448-1.238 1.816-.615.317-.83.518-.904.898 0 .004-.034.207-.036.21-.034.126-.087.244-.18.336-.14.14-.323.21-.524.21-.097 0-.192-.017-.29-.052-.087-.035-.165-.088-.235-.158-.14-.14-.22-.333-.22-.533 0-.11.02-.188.074-.348.16-.472.55-.896 1.056-1.17.577-.327.84-.558.84-1.07 0-.42-.357-.715-.987-.715-.496 0-.996.218-1.39.52-.26.2-.62.202-.858-.02l-.05-.05c-.313-.29-.27-.787.075-1.04.603-.444 1.394-.753 2.4-.753zM8 13.25c-2.895 0-5.25-2.355-5.25-5.25S5.105 2.75 8 2.75 13.25 5.105 13.25 8 10.895 13.25 8 13.25M8 1C4.14 1 1 4.14 1 8s3.14 7 7 7 7-3.14 7-7-3.14-7-7-7"></path></svg>